<svg width="180" height="31" viewBox="0 0 180 31" fill="none" xmlns="http://www.w3.org/2000/svg">
<path d="M45.5019 14.0723C45.0892 13.6976 44.6562 13.3991 44.2027 13.1737C44.7833 12.6815 45.2351 12.0894 45.5584 11.394C45.88 10.6986 46.0416 9.98899 46.0416 9.26188C46.0416 8.53477 45.9098 7.89656 45.6462 7.28217C45.3826 6.66777 45.0014 6.13117 44.5055 5.67077C44.0082 5.21195 43.4276 4.85793 42.7624 4.61185C42.0971 4.36578 41.3832 4.24353 40.6238 4.24353C39.9679 4.24353 39.3246 4.36101 38.6907 4.59597C38.0568 4.83093 37.492 5.16274 36.9946 5.5898C36.4768 6.02797 36.0861 6.52489 35.8225 7.08054C35.5166 7.67906 35.3628 8.30457 35.3628 8.95707C35.3628 9.35237 35.4507 9.7191 35.6248 10.0557C35.799 10.3922 36.0343 10.6574 36.3293 10.8495C36.6243 11.0416 36.9365 11.1384 37.2645 11.1384C37.4653 11.1384 37.6771 11.0955 37.8984 11.0098L38.0254 10.8971C37.5281 10.3732 37.2802 9.74768 37.2802 9.02056C37.2802 8.29345 37.5971 7.6092 38.231 7.06466C38.5589 6.78683 38.9308 6.57093 39.3481 6.41534C39.7655 6.25976 40.1907 6.18355 40.6238 6.18355C41.3 6.18355 41.9041 6.31533 42.4376 6.57569C42.971 6.83764 43.3853 7.2012 43.6818 7.66636C43.9768 8.13152 44.1258 8.66336 44.1258 9.26188C44.1258 9.62544 44.0521 9.99693 43.9046 10.3764C43.7571 10.7558 43.55 11.0955 43.2864 11.394C43.0542 11.6512 42.7639 11.875 42.4156 12.0671C42.0673 12.2592 41.6609 12.372 41.1949 12.4037V8.45856C41.1949 8.31886 41.2263 8.16962 41.2906 8.00927C41.3549 7.84893 41.4334 7.71081 41.5275 7.59174V7.47903H38.9292V7.59174C39.1614 7.88068 39.2775 8.17439 39.2775 8.47286V14.566C38.7174 14.7263 38.2074 15.0201 37.7477 15.4487C37.288 15.8758 36.924 16.3901 36.6541 16.9886C36.3842 17.5872 36.2493 18.2174 36.2493 18.8811C36.2493 20.3448 36.6667 21.5593 37.5014 22.5214C37.9031 22.9707 38.4287 23.3501 39.0783 23.6597C39.7278 23.9693 40.528 24.1248 41.4789 24.1248C42.345 24.1248 43.1374 23.9756 43.856 23.6755C44.5856 23.3755 45.2085 22.9595 45.7263 22.4245C46.244 21.8895 46.6394 21.264 46.9156 20.548C47.1902 19.832 47.3282 19.0668 47.3282 18.2555C47.3282 17.4443 47.1729 16.6791 46.8607 15.9631C46.5484 15.2471 46.0965 14.6168 45.505 14.0707L45.5019 14.0723ZM39.2744 21.545C39.1583 21.4593 39.0469 21.3529 38.9418 21.2243C38.424 20.6464 38.1651 19.8669 38.1651 18.8826C38.1651 18.5508 38.2231 18.2301 38.3392 17.9206C38.4554 17.611 38.6185 17.3332 38.8304 17.0871C38.9355 16.9585 39.0845 16.8251 39.2744 16.6854V21.5434V21.545ZM45.1379 19.813C44.9574 20.294 44.7001 20.7115 44.3612 21.064C44.0019 21.4275 43.5798 21.7054 43.0934 21.8975C42.607 22.0896 42.0688 22.1864 41.4773 22.1864H41.1918V14.393C41.7723 14.393 42.3215 14.4898 42.8392 14.6819C43.357 14.874 43.8167 15.1518 44.2184 15.5154C44.5981 15.8678 44.8915 16.2822 45.0986 16.7585C45.3042 17.2347 45.4077 17.7332 45.4077 18.2571C45.4077 18.8128 45.3183 19.3319 45.1379 19.813Z" fill="black"/>
<path d="M51.2064 8.36332C51.3021 8.55542 51.3727 8.71418 51.4198 8.83642C51.4669 8.96025 51.4904 9.09043 51.4904 9.22855V18.4969C51.4904 18.7318 51.3947 19.0208 51.2048 19.3621V19.4748H53.629V19.3621C53.5333 19.17 53.4627 19.0112 53.4156 18.889C53.3685 18.7668 53.345 18.635 53.345 18.4969V9.22855C53.345 8.99359 53.4407 8.70466 53.6306 8.36332V8.2506H51.2064V8.36332Z" fill="black"/>
<path d="M61.9827 8.13943H60.3023V8.25215C60.365 8.30613 60.4231 8.3855 60.4764 8.49346C60.5298 8.59982 60.5549 8.71255 60.5549 8.83003C60.5549 8.89354 60.5486 8.94275 60.5392 8.9745L58.0993 18.8191C58.057 18.9906 57.9566 19.1827 57.7981 19.397V19.4764H60.1124V19.3636C60.0073 19.1715 59.9539 19.0064 59.9539 18.8667C59.9539 18.8239 59.9649 18.7493 59.9853 18.6429L60.4294 16.9759H61.9827L62.3781 18.5635C62.3985 18.6699 62.4095 18.7461 62.4095 18.7874C62.4095 18.9699 62.3467 19.162 62.2196 19.3652V19.4779H64.6924V19.3811C64.523 19.1779 64.4022 18.9159 64.3284 18.5953L61.9827 8.14102V8.13943ZM60.7306 15.4518L61.2374 13.0467L61.7128 15.4518H60.7306Z" fill="black"/>
<path d="M68.86 8.36332C68.9557 8.55542 69.0263 8.71418 69.0734 8.83642C69.1204 8.96025 69.144 9.09043 69.144 9.22855V18.4969C69.144 18.7318 69.0483 19.0208 68.8584 19.3621V19.4748H71.2826V19.3621C71.1868 19.17 71.1162 19.0112 71.0692 18.889C71.0221 18.7668 70.9986 18.635 70.9986 18.4969V9.22855C70.9986 8.99359 71.0943 8.70466 71.2841 8.36332V8.2506H68.86V8.36332Z" fill="black"/>
<path d="M80.1189 17.6396C79.9871 17.7094 79.8475 17.7443 79.6984 17.7443H78.018V9.23013C78.018 8.98405 78.1137 8.69511 78.3036 8.36489V8.25218H75.8794V8.36489C76.0583 8.6967 76.1493 8.98564 76.1493 9.23013V18.4984C76.1493 18.7445 76.0598 19.0335 75.8794 19.3637V19.4764H80.8721V17.168H80.8093C80.4814 17.4141 80.2523 17.5713 80.1205 17.6412L80.1189 17.6396Z" fill="black"/>
<path d="M89.469 17.6396C89.3372 17.7094 89.1976 17.7443 89.0485 17.7443H87.3681V9.23013C87.3681 8.98405 87.4638 8.69511 87.6536 8.36489V8.25218H85.2295V8.36489C85.4084 8.6967 85.4994 8.98564 85.4994 9.23013V18.4984C85.4994 18.7445 85.4099 19.0335 85.2295 19.3637V19.4764H90.2206V17.168H90.1578C89.8299 17.4141 89.6008 17.5713 89.469 17.6412V17.6396Z" fill="black"/>
<path d="M98.621 8.36332C98.8218 8.66338 98.9223 8.95072 98.9223 9.22855V16.1711C98.9223 16.695 98.8218 17.1046 98.621 17.3983C98.4202 17.692 98.1346 17.8396 97.7659 17.8396C97.438 17.8396 97.1791 17.6936 96.9892 17.3983C96.7994 17.1046 96.7037 16.695 96.7037 16.1711V9.22855C96.7037 8.98247 96.7994 8.69354 96.9892 8.36332V8.2506H94.5007V8.36332C94.5745 8.46969 94.6451 8.61257 94.7141 8.7888C94.7832 8.96502 94.8177 9.11266 94.8177 9.23014V16.1726C94.8177 17.2316 95.0797 18.065 95.6022 18.6747C96.1247 19.2843 96.8464 19.5891 97.7659 19.5891C98.6853 19.5891 99.4134 19.2843 99.9531 18.6747C100.493 18.065 100.761 17.2316 100.761 16.1726V9.05392C100.761 8.85071 100.866 8.62051 101.078 8.3649V8.25219H98.621V8.3649V8.36332Z" fill="black"/>
<path d="M108.034 12.164C107.558 11.6512 107.321 11.1161 107.321 10.5605C107.321 10.3255 107.39 10.1191 107.527 9.94292C107.663 9.7667 107.844 9.6778 108.065 9.6778C108.36 9.6778 108.63 9.77147 108.873 9.9588C109.116 10.1461 109.311 10.3573 109.46 10.5922H109.587L109.524 8.37915C109.451 8.32518 109.281 8.27278 109.017 8.21881C108.754 8.16483 108.437 8.13943 108.067 8.13943C107.252 8.13943 106.598 8.35852 106.102 8.79669C105.605 9.23486 105.357 9.81751 105.357 10.5446C105.357 11.132 105.473 11.6861 105.705 12.2036C105.937 12.7228 106.297 13.2435 106.783 13.7674C107.312 14.3342 107.704 14.8501 107.963 15.3153C108.222 15.7805 108.351 16.2155 108.351 16.6219C108.351 17.0712 108.239 17.4268 108.018 17.6887C107.797 17.9507 107.516 18.0809 107.179 18.0809C106.777 18.0809 106.452 17.9745 106.204 17.7602C105.956 17.5459 105.748 17.2474 105.578 16.8616H105.451L105.498 19.0255C105.614 19.1652 105.823 19.2922 106.124 19.4097C106.425 19.5272 106.813 19.5859 107.288 19.5859C108.166 19.5859 108.87 19.3081 109.403 18.7524C109.937 18.1968 110.204 17.4649 110.204 16.5552C110.204 15.8281 110.023 15.1089 109.665 14.3993C109.306 13.688 108.762 12.9435 108.034 12.1624V12.164Z" fill="black"/>
<path d="M113.85 10.4811H113.913L114.103 10.3526C114.516 10.1065 114.842 9.98423 115.085 9.98423H115.925V18.4984C115.925 18.6382 115.895 18.7731 115.837 18.908C115.779 19.0414 115.691 19.1938 115.575 19.3653V19.478H118.142V19.3653C118.025 19.1938 117.938 19.0414 117.88 18.908C117.821 18.7747 117.792 18.6382 117.792 18.4984V9.98423H118.631C118.874 9.98423 119.202 10.1065 119.613 10.3526L119.803 10.4811H119.866V8.25218H113.844V10.4811H113.85Z" fill="black"/>
<path d="M128.477 14.6009C128.931 14.366 129.324 13.9595 129.657 13.3817C129.99 12.8038 130.156 12.1418 130.156 11.394C130.156 10.4542 129.894 9.69371 129.371 9.11742C128.849 8.54112 128.159 8.25218 127.303 8.25218H124.23V8.36489C124.409 8.6967 124.5 8.98564 124.5 9.23013V18.4984C124.5 18.7445 124.41 19.0335 124.23 19.3637V19.4764H126.623V19.3637C126.453 19.0319 126.368 18.7445 126.368 18.4984V14.7946H126.907L128.317 19.4764H130.409V19.3637C130.208 19.1065 130.049 18.835 129.933 18.5461L128.476 14.6009H128.477ZM127.804 12.7403C127.545 13.0292 127.247 13.1737 126.908 13.1737H126.37V10.0144H126.687C127.691 10.0144 128.192 10.5383 128.192 11.5861C128.192 12.0671 128.061 12.4513 127.804 12.7403Z" fill="black"/>
<path d="M138.049 8.13943H136.369V8.25215C136.431 8.30613 136.489 8.3855 136.543 8.49346C136.596 8.59982 136.621 8.71255 136.621 8.83003C136.621 8.89354 136.617 8.94275 136.606 8.9745L134.166 18.8191C134.123 18.9906 134.023 19.1827 133.865 19.397V19.4764H136.179V19.3636C136.074 19.1715 136.02 19.0064 136.02 18.8667C136.02 18.8239 136.031 18.7493 136.052 18.6429L136.496 16.9759H138.049L138.446 18.5635C138.466 18.6699 138.477 18.7461 138.477 18.7874C138.477 18.9699 138.415 19.162 138.288 19.3652V19.4779H140.76V19.3811C140.591 19.1779 140.47 18.9159 140.396 18.5953L138.051 8.14102L138.049 8.13943ZM136.797 15.4518L137.304 13.0467L137.779 15.4518H136.797Z" fill="black"/>
<path d="M143.897 10.4811H143.96L144.15 10.3526C144.563 10.1065 144.889 9.98423 145.132 9.98423H145.972V18.4984C145.972 18.6382 145.942 18.7731 145.884 18.908C145.826 19.0414 145.738 19.1938 145.622 19.3653V19.478H148.189V19.3653C148.073 19.1938 147.985 19.0414 147.927 18.908C147.869 18.7747 147.839 18.6382 147.839 18.4984V9.98423H148.678C148.921 9.98423 149.249 10.1065 149.66 10.3526L149.85 10.4811H149.913V8.25218H143.891V10.4811H143.897Z" fill="black"/>
<path d="M154.276 8.36332C154.372 8.55542 154.443 8.71418 154.49 8.83642C154.537 8.96025 154.56 9.09043 154.56 9.22855V18.4969C154.56 18.7318 154.465 19.0208 154.275 19.3621V19.4748H156.699V19.3621C156.603 19.17 156.533 19.0112 156.486 18.889C156.439 18.7668 156.415 18.635 156.415 18.4969V9.22855C156.415 8.99359 156.511 8.70466 156.701 8.36332V8.2506H154.276V8.36332Z" fill="black"/>
<path d="M166.7 8.85225C166.14 8.37597 165.495 8.13783 164.767 8.13783C164.039 8.13783 163.394 8.3728 162.834 8.84272C162.274 9.31265 161.837 9.97626 161.527 10.8304C161.214 11.6861 161.059 12.6752 161.059 13.7976C161.059 14.92 161.214 15.9519 161.527 16.8283C161.839 17.7046 162.274 18.3841 162.834 18.8651C163.394 19.3462 164.039 19.5859 164.767 19.5859C165.495 19.5859 166.14 19.3478 166.7 18.8731C167.26 18.3968 167.693 17.7268 167.999 16.86C168.305 15.9948 168.459 14.9994 168.459 13.877C168.459 12.7545 168.305 11.7417 167.999 10.8701C167.693 9.99848 167.26 9.32535 166.7 8.84908V8.85225ZM165.907 16.7727C165.622 17.4935 165.242 17.8554 164.767 17.8554C164.461 17.8554 164.186 17.684 163.943 17.3427C163.7 17.0013 163.511 16.5203 163.38 15.8995C163.248 15.2804 163.182 14.5691 163.182 13.7674C163.182 12.9657 163.248 12.2957 163.38 11.6908C163.511 11.0876 163.7 10.6192 163.943 10.2874C164.186 9.95562 164.461 9.79051 164.767 9.79051C165.242 9.79051 165.622 10.1699 165.907 10.9288C166.193 11.6877 166.336 12.6879 166.336 13.9278C166.336 15.1042 166.193 16.0519 165.907 16.7743V16.7727Z" fill="black"/>
<path d="M176.954 8.25218V8.36489C177.144 8.63161 177.239 8.92055 177.239 9.23013V13.1261L174.878 8.25218H172.833V8.36489C172.929 8.53635 172.997 8.68559 173.039 8.81418C173.081 8.94278 173.102 9.0809 173.102 9.23172V18.5C173.102 18.735 173.006 19.0192 172.816 19.3494V19.478H175.256V19.3494C175.066 19.0604 174.97 18.7779 174.97 18.5V12.6466L178.488 19.478H179.138V9.23172C179.138 8.965 179.223 8.67606 179.392 8.36648V8.25377H176.952L176.954 8.25218Z" fill="black"/>
<path d="M29.3479 14.2588C29.3479 14.2588 29.3519 14.2588 29.3542 14.2588C29.7176 14.2588 30.0126 13.9609 30.0126 13.5926C30.0126 13.2243 29.7182 12.9264 29.3542 12.9264C29.3428 12.9264 29.3314 12.9275 29.3206 12.9281C29.1013 9.86836 27.8186 7.02131 25.653 4.83011C24.6733 3.83883 23.5603 3.03024 22.3556 2.42164C22.4524 2.21532 22.465 2.00611 22.4832 1.79518C22.5123 1.82457 22.5516 1.86261 22.5738 1.88969C22.6233 1.95136 22.6518 1.97441 22.6752 2.04645C22.6826 2.06835 22.6894 2.08737 22.6985 2.11043C22.7076 2.08853 22.7156 2.04415 22.7133 2.0234C22.7071 1.96865 22.7076 1.93522 22.6911 1.88335C22.5561 1.46552 22.338 1.09436 22.0321 0.784298C21.7279 0.475387 21.3685 0.26157 20.9299 0.2097C20.8826 0.203937 20.8371 0.183765 20.7915 0.166476C19.9428 -0.150504 19.175 -0.0202543 18.5063 0.603908C18.3525 0.747413 18.2227 0.922616 18.1036 1.0984C18.0899 1.11857 18.0774 1.13816 18.0649 1.15776C17.62 1.1105 17.1706 1.08572 16.7178 1.08572C13.3424 1.08572 10.1692 2.41588 7.78259 4.83069C5.617 7.02188 4.33428 9.86836 4.11498 12.9287C4.10359 12.9281 4.09277 12.9269 4.08138 12.9269C3.71798 12.9269 3.42293 13.2249 3.42293 13.5932C3.42293 13.9614 3.71741 14.2594 4.08138 14.2594C4.08366 14.2594 4.08537 14.2594 4.08764 14.2594C4.16226 16.8235 4.98019 19.2579 6.43664 21.3102C6.17634 21.4445 5.928 21.6024 5.69617 21.7908C5.29233 22.1188 4.94317 22.502 4.59002 22.8818C3.93328 23.5878 3.27427 24.2915 2.51158 24.8851C2.44266 24.9387 2.39083 24.9641 2.31393 24.9065C2.27919 24.8805 2.2302 24.8725 2.18634 24.8609C1.83092 24.7716 1.47663 24.7975 1.12235 24.8707C1.04032 24.888 0.959441 24.9226 0.883116 24.8488C0.865459 24.8315 0.825018 24.8327 0.795969 24.8356C0.720782 24.8436 0.646166 24.8684 0.57155 24.8661C0.359092 24.8598 0.275362 24.9952 0.217263 25.1704C0.0629037 25.6378 0.032145 26.1179 0.0634726 26.606C0.0703077 26.7144 0.098218 26.8055 0.176822 26.8856C0.271944 26.9835 0.267956 27.1005 0.226376 27.2279C0.152899 27.4538 0.0623342 27.6792 0.030437 27.9126C-0.0270918 28.3339 -0.00260016 28.7581 0.0999265 29.1736C0.202453 29.588 0.362509 29.9793 0.628509 30.3141C0.732745 30.4455 0.867737 30.5562 1.00159 30.6588C1.10811 30.7406 1.14513 30.7245 1.24766 30.6398C1.27386 30.6184 1.31202 30.6086 1.34677 30.6023C1.55353 30.5654 1.74833 30.4323 1.74719 30.1464C1.74605 29.8825 1.75004 29.6179 1.76883 29.3551C1.79105 29.0405 1.83149 28.7275 1.86566 28.414C1.86908 28.3846 1.87819 28.3517 1.89585 28.3298C1.96136 28.2474 2.03255 28.1696 2.0992 28.0878C2.24046 27.9155 2.37659 27.7385 2.52183 27.5702C2.64031 27.4331 2.65341 27.2861 2.56171 27.1397C2.49392 27.032 2.51956 26.949 2.58677 26.8654C2.72803 26.689 2.86245 26.5058 3.01681 26.3427C3.72709 25.5917 4.54275 24.9687 5.40226 24.4074C5.9747 24.0333 6.56651 23.6904 7.15433 23.3406C7.37818 23.2074 7.60545 23.0824 7.83613 22.9654C9.25043 24.3803 10.9376 25.4148 12.7762 26.0228C12.7773 25.9894 12.7791 25.956 12.7819 25.9225C10.9387 25.3047 9.28461 24.265 7.92955 22.9181C8.41256 22.6778 8.91152 22.4738 9.43042 22.3141C9.72661 22.2231 10.0194 22.128 10.2609 21.9153C10.4825 21.7199 10.7171 21.5396 10.941 21.3471C11.825 20.5852 12.7067 19.8215 13.589 19.0585C13.6152 19.0354 13.6437 19.0147 13.687 18.9801C13.6955 19.032 13.7018 19.0637 13.7052 19.0948C13.716 19.2049 13.7183 19.3161 13.7394 19.4239C13.7491 19.4752 13.7827 19.5483 13.8225 19.5622C13.9279 19.6002 13.945 19.6723 13.933 19.7633C13.9222 19.8446 13.9114 19.9281 13.8835 20.0042C13.7935 20.2486 13.7064 20.4889 13.7183 20.7604C13.7428 21.335 13.933 21.8514 14.2213 22.336C14.2987 22.4663 14.3967 22.585 14.4952 22.7009C14.522 22.7326 14.583 22.7406 14.6297 22.7487C14.6724 22.7562 14.7174 22.7464 14.7612 22.7475C14.8091 22.7487 14.8592 22.7631 14.9048 22.7545C15.1275 22.7124 15.3155 22.4807 15.3086 22.2519C15.3046 22.1234 15.2847 21.9954 15.2739 21.8675C15.2596 21.7027 15.2579 21.5355 15.2317 21.3724C15.2038 21.2001 15.2875 21.0549 15.3172 20.897C15.3735 20.5938 15.602 20.3506 15.6253 20.0336C15.721 19.9535 15.7814 19.8181 15.9278 19.8186C16.1003 19.8192 16.2735 19.8233 16.445 19.8394C17.0949 19.9016 17.7328 20.0382 18.3662 20.1904C19.011 20.3454 19.65 20.5252 20.2891 20.7045C20.8673 20.867 21.4403 21.0468 22.0173 21.2111C22.1676 21.2537 22.3283 21.3015 22.4804 21.2906C22.9827 21.2554 23.3644 20.9978 23.6349 20.5731C23.8092 20.2993 23.8257 20.0111 23.6845 19.7149C23.4732 19.2723 23.1889 18.8775 22.8694 18.5121C22.584 18.1865 22.2776 17.8799 21.978 17.5675C21.9267 17.5139 21.9096 17.4741 21.9689 17.4159C21.9956 17.3894 22.0178 17.3508 22.0275 17.3134C22.1158 16.9606 22.2007 16.6068 22.2873 16.2535C22.3015 16.1947 22.2764 16.163 22.224 16.1394C21.7974 15.9498 21.3565 15.8051 20.8935 15.7521C20.6691 15.7267 20.4674 15.6893 20.3239 15.4956C20.3045 15.4691 20.2749 15.4501 20.2493 15.4288C19.9645 15.1919 19.6962 14.9268 19.3111 14.8565C19.2969 14.8542 19.2753 14.8346 19.2747 14.823C19.2718 14.7055 19.1801 14.585 19.2832 14.4698C19.2906 14.4611 19.2946 14.4479 19.2969 14.4358C19.314 14.3493 19.3664 14.3384 19.445 14.3499C19.5612 14.3672 19.6791 14.3712 19.7964 14.3804C19.8716 14.3862 19.9001 14.3579 19.9001 14.2744C19.9001 13.9338 19.9029 13.5932 19.9143 13.2531C19.9223 13.007 19.9588 12.7638 20.079 12.5431C20.141 12.4284 20.1587 12.4215 20.2652 12.4906C20.4708 12.6238 20.6856 12.7229 20.9385 12.6976C20.9561 12.6958 20.9743 12.7033 20.992 12.7062C21.2227 12.7402 21.4221 12.8462 21.6163 12.9702C21.7439 13.052 21.8777 13.1246 22.0139 13.192C22.1107 13.2399 22.2229 13.275 22.3152 13.1955C22.3921 13.1286 22.4638 13.1281 22.5493 13.1528C22.6074 13.1696 22.6683 13.1765 22.7258 13.1961C22.8033 13.222 22.8785 13.2151 22.9258 13.1523C23.0317 13.0116 23.173 13.0059 23.3251 13.0209C23.3552 13.0238 23.3854 13.0209 23.4162 13.0209C23.7044 13.0261 24.0399 12.8393 24.094 12.4399C24.0986 12.4082 24.1367 12.3754 24.1675 12.3541C24.2165 12.3206 24.2803 12.3051 24.3236 12.2659C24.3896 12.2059 24.3708 12.1281 24.2882 12.1091C24.1783 12.0838 24.1293 12.0215 24.1333 11.9091C24.1345 11.8728 24.131 11.8331 24.1162 11.8008C24.1008 11.7674 24.0752 11.7282 24.0445 11.7149C23.9169 11.6596 23.7847 11.6152 23.656 11.5633C23.5614 11.5253 23.4783 11.5409 23.402 11.6054C23.2954 11.6959 23.1884 11.7864 23.0824 11.8786C23.0403 11.9149 23.0055 11.9201 22.9531 11.8895C22.8944 11.855 22.8232 11.8434 22.7595 11.8158C22.723 11.8002 22.6871 11.7777 22.6575 11.7512C22.5817 11.6815 22.5219 11.5852 22.4348 11.5397C22.109 11.3708 21.7798 11.2054 21.442 11.0637C21.2307 10.9749 21.0324 10.8913 20.9083 10.6798C20.8701 10.6147 20.7841 10.5778 20.7197 10.5283C20.7015 10.5138 20.6656 10.5 20.6656 10.4868C20.6685 10.4038 20.6599 10.3116 20.693 10.2401C20.7363 10.1444 20.8177 10.0672 20.8758 9.97786C20.9185 9.91159 20.9584 9.90986 21.0154 9.95712C21.1185 10.0424 21.2238 10.1254 21.3298 10.2072C21.479 10.3219 21.6448 10.4032 21.8276 10.4435C21.8629 10.451 21.9022 10.4401 21.9392 10.4378C21.9278 10.4015 21.921 10.3623 21.9034 10.3288C21.8777 10.2804 21.8441 10.2361 21.8151 10.1894C21.6647 9.94386 21.4972 9.71621 21.2136 9.61305C21.1566 9.5923 21.1612 9.55196 21.1817 9.50931C21.2654 9.33929 21.266 9.16063 21.2392 8.97851C21.2364 8.96065 21.2415 8.94105 21.2449 8.90186C21.2751 8.93932 21.2928 8.9595 21.3076 8.98082C21.5012 9.26783 21.7632 9.43554 22.1101 9.47473C22.4843 9.51623 22.8096 9.68394 23.1115 9.90352C23.1411 9.92542 23.1735 9.94328 23.2043 9.96288C23.2129 9.95481 23.2214 9.94617 23.2294 9.9381C23.0927 9.73581 22.9565 9.53409 22.817 9.32777C23.177 9.18253 23.5278 9.02577 23.9305 9.02808C23.7614 8.8961 23.5894 8.78372 23.4156 8.67421C23.2584 8.57566 23.0853 8.53705 22.9019 8.55607C22.6461 8.58315 22.3886 8.6016 22.1357 8.64597C21.7467 8.71456 21.5172 8.5699 21.3269 8.19644C21.3172 8.17742 21.319 8.15264 21.3127 8.11402C21.3474 8.13708 21.3668 8.15091 21.3867 8.16301C21.4614 8.20912 21.5326 8.26329 21.6123 8.29845C21.7103 8.3411 21.7627 8.30306 21.7518 8.19644C21.7405 8.08463 21.7211 7.97109 21.6858 7.86505C21.622 7.67313 21.5958 7.48583 21.6618 7.28872C21.6835 7.2236 21.6852 7.14983 21.6863 7.08009C21.688 6.99595 21.6596 6.97578 21.5793 7.00114C21.5337 7.01554 21.4915 7.04033 21.4346 7.06626C21.4443 7.02822 21.4505 6.99941 21.4579 6.97174C21.5098 6.77118 21.5559 6.57004 21.4773 6.3666C21.4312 6.24672 21.3748 6.13088 21.3303 6.01043C21.319 5.97931 21.3212 5.92398 21.3412 5.90439C21.3531 5.89286 21.3657 5.88133 21.3776 5.86981C21.364 5.82024 21.3537 5.7701 21.348 5.71881C21.2979 5.62371 21.2677 5.51998 21.2535 5.41278C21.2421 5.38684 21.2318 5.35976 21.2193 5.3344C21.2204 5.3367 21.221 5.33786 21.2221 5.33959C21.2181 5.33152 21.2136 5.32345 21.209 5.31538C21.1971 5.31423 21.1521 5.32114 21.1401 5.31999C21.0917 5.1736 21.1566 5.02088 21.1726 4.83069C21.1817 4.73732 21.2261 4.55232 21.2557 4.46472C21.2956 4.34773 21.3617 4.36732 21.5434 4.40478C21.6562 4.42784 21.7706 4.44109 21.8851 4.4555C22.007 4.47106 22.0401 4.45204 22.0925 4.33966C22.1107 4.30104 22.1204 4.2584 22.1375 4.21921C22.1796 4.12181 22.2172 4.02153 22.269 3.92931C22.3112 3.85554 22.3482 3.78984 22.3288 3.69878C22.3214 3.66363 22.3459 3.61637 22.3676 3.58179C22.4217 3.49419 22.461 3.40716 22.4502 3.29766C22.4393 3.19162 22.4405 3.08384 22.4456 2.97722C22.4536 2.82507 22.4553 2.82104 22.3157 2.81297C22.289 2.81124 22.2622 2.80259 22.2366 2.79337C22.113 2.749 21.9677 2.68906 22.0788 2.43547C22.0839 2.42452 22.0873 2.41242 22.0919 2.40089C26.0642 4.31488 28.8917 8.28058 29.2272 12.9356C28.9236 12.9949 28.6946 13.2647 28.6946 13.5891C28.6946 13.9136 28.9378 14.1989 29.2551 14.2467C29.0939 19.7835 25.4115 24.4396 20.4002 26.0009C20.4082 26.0326 20.4156 26.0643 20.4224 26.096C22.3761 25.4926 24.1663 24.412 25.6518 22.9089C27.9484 20.5852 29.2517 17.5249 29.3468 14.2542L29.3479 14.2588ZM18.5331 18.4977C18.5046 18.5 18.4761 18.5058 18.4482 18.504C17.9914 18.4821 17.534 18.47 17.0783 18.4332C16.7258 18.4049 16.3755 18.345 16.0246 18.3C15.9756 18.2937 15.946 18.2879 15.9392 18.2211C15.9352 18.179 15.8839 18.1289 15.8412 18.1047C15.5934 17.9652 15.3263 17.8776 15.0472 17.8263C15.001 17.8176 14.9555 17.809 14.8985 17.7986C14.919 17.7681 14.9287 17.7491 14.9424 17.7341C15.0768 17.5888 15.2141 17.4453 15.3468 17.2984C15.4214 17.216 15.5114 17.1727 15.6196 17.1745C15.8099 17.1768 16.0001 17.1802 16.1898 17.19C16.2319 17.1923 16.2769 17.216 16.3134 17.2402C17.0014 17.6955 17.7203 18.0954 18.4681 18.4406C18.4915 18.4516 18.5131 18.466 18.5354 18.4793C18.5342 18.485 18.5331 18.4908 18.5325 18.4966L18.5331 18.4977ZM17.8997 1.40731C17.8228 1.47474 17.7584 1.54908 17.6781 1.61248C16.8858 2.23664 16.0371 2.72882 15.0813 2.98587C14.5881 3.119 14.0885 3.20602 13.581 3.25501C13.2524 3.28671 12.9266 3.34146 12.5996 3.38872C12.5546 3.39506 12.5119 3.41696 12.4686 3.43137C12.4698 3.44347 12.4703 3.45615 12.4715 3.46825C12.5 3.47517 12.5284 3.48842 12.5558 3.48727C12.6253 3.48381 12.6948 3.47286 12.7637 3.46595C12.8241 3.45961 12.885 3.455 12.9454 3.44923C12.8366 3.5207 12.7244 3.56796 12.6162 3.62386C12.1975 3.84056 11.8649 4.15812 11.6678 4.63301C11.6137 4.76326 11.6148 4.76499 11.4866 4.72407C11.4308 4.7062 11.3727 4.69179 11.3215 4.6624C11.068 4.51659 10.8168 4.36675 10.565 4.21748C10.5252 4.19385 10.487 4.16676 10.4483 4.1414C10.4432 4.15178 10.4375 4.16157 10.4323 4.17195C10.7536 4.60534 11.1626 4.91022 11.6211 5.15862C11.592 5.1811 11.5789 5.19435 11.5635 5.20357C11.2674 5.37993 11.019 5.61622 10.8259 5.92283C10.6459 6.20926 10.5491 6.52336 10.6055 6.88414C10.6237 6.99941 10.6624 7.10603 10.7268 7.20516C10.7393 7.19536 10.7513 7.18556 10.7638 7.17634C10.7638 7.15559 10.765 7.13542 10.7638 7.11467C10.7524 6.77118 10.8476 6.48417 11.1039 6.28361C11.4018 6.05077 11.739 5.90496 12.0967 5.85482C12.6486 5.77759 13.2068 5.74359 13.7627 5.69172C13.773 5.69057 13.7832 5.69691 13.8083 5.70325C13.7513 5.76088 13.7041 5.80583 13.6596 5.85367C13.4967 6.0306 12.8793 6.82247 12.7409 7.28181C12.4014 7.35327 12.0648 7.42704 11.7521 7.59418C11.563 7.69503 11.3579 7.76765 11.1557 7.84084C10.9364 7.9198 10.7103 7.98032 10.4904 8.05697C10.344 8.10826 10.2056 8.18952 10.1572 8.34628C10.1225 8.45751 10.0536 8.50304 9.95957 8.53762C9.89977 8.55952 9.84053 8.58315 9.78357 8.61139C9.75851 8.62407 9.72718 8.64828 9.72205 8.67248C9.70439 8.76009 9.64915 8.76009 9.58478 8.74337C9.54092 8.73185 9.49763 8.71744 9.45605 8.69899C9.21967 8.59583 8.98842 8.47941 8.74691 8.39008C8.38579 8.25638 8.0184 8.14169 7.65329 8.01893C7.53937 7.98089 7.53937 7.98147 7.50463 8.1048C7.47387 8.09904 7.44254 8.08809 7.41122 8.08751C7.37248 8.08694 7.33432 8.09501 7.29559 8.09904C7.3104 8.14169 7.31268 8.20105 7.34229 8.22353C7.4414 8.29845 7.54849 8.363 7.65557 8.42582C7.72677 8.46731 7.80423 8.49901 7.87885 8.53532C7.84638 8.56298 7.81563 8.5722 7.78487 8.57336C7.68519 8.57854 7.58437 8.57797 7.48469 8.58603C7.44995 8.58892 7.41634 8.61024 7.38217 8.6235C7.40381 8.66096 7.42147 8.70188 7.44824 8.7353C7.46191 8.75259 7.48925 8.76297 7.51203 8.76815C7.65899 8.80216 7.80594 8.83501 7.95347 8.86498C8.00587 8.87535 8.05998 8.87535 8.11352 8.88054L8.11466 8.90878C8.0896 8.92492 8.06568 8.94336 8.03948 8.95604C7.966 8.99177 7.88967 9.02231 7.81734 9.06035C7.79398 9.07245 7.77917 9.10185 7.76038 9.12317C7.78487 9.14277 7.80822 9.17792 7.83328 9.17908C7.94094 9.18369 8.05599 9.20213 8.1551 9.17158C8.38237 9.10185 8.58458 9.13585 8.77995 9.26034C8.94399 9.36523 9.10461 9.47646 9.27492 9.56982C9.58592 9.74042 9.9066 9.87355 10.2728 9.75828C10.2979 9.75022 10.3429 9.76405 10.3623 9.78422C10.4722 9.89948 10.5952 9.90006 10.7285 9.83839C10.7838 9.81304 10.839 9.7871 10.8926 9.75886C10.9666 9.71967 11.0372 9.69316 11.1255 9.7214C11.1728 9.73638 11.2355 9.72486 11.285 9.70757C11.5835 9.60556 11.8797 9.49721 12.177 9.39347C12.7158 9.20559 13.2484 9.00445 13.7576 8.7428C13.851 8.69496 13.9547 8.65404 14.0572 8.64079C14.3067 8.60736 14.5579 8.58258 14.8091 8.57163C15.2312 8.55318 15.6179 8.43388 15.9745 8.20451C16.0348 8.16532 16.1123 8.14111 16.1841 8.13304C16.4307 8.10538 16.6785 8.08809 16.9257 8.06619C16.9878 8.06042 17.0499 8.05178 17.125 8.04256C17.1171 8.08521 17.1137 8.1169 17.1057 8.14803C16.994 8.56183 16.8841 8.97621 16.7668 9.38828C16.752 9.439 16.7024 9.49202 16.6551 9.51853C16.5498 9.57847 16.4882 9.66146 16.4831 9.78134C16.4786 9.88738 16.4301 9.94559 16.327 9.96C16.1248 9.98881 15.999 10.1185 15.9055 10.2897C15.8953 10.3087 15.8839 10.3265 15.8759 10.3467C15.8258 10.4729 15.7313 10.5548 15.6202 10.6234C15.4077 10.7542 15.1918 10.8792 14.9874 11.0216C14.7202 11.2066 14.4559 11.3979 14.203 11.602C14.0322 11.7397 14.0156 11.8619 14.1239 12.0555C14.2161 12.2204 14.3244 12.3765 14.4366 12.5287C14.5397 12.6687 14.5459 12.6635 14.4024 12.7627C14.3825 12.7765 14.3614 12.7898 14.3449 12.8076C14.1854 12.9748 14.027 13.1436 13.867 13.3102C13.7958 13.384 13.7217 13.4548 13.6483 13.5257C13.6038 13.569 13.5634 13.5563 13.5104 13.5275C13.2792 13.4012 13.0439 13.2819 12.8104 13.1603C12.6583 13.0814 12.5227 13.0825 12.4174 13.241C12.4043 13.2612 12.386 13.2825 12.3655 13.2912C12.3376 13.3033 12.3006 13.316 12.2755 13.3067C11.9526 13.1897 11.6234 13.1033 11.2827 13.0555C11.1888 13.0422 11.1495 13.0612 11.1238 13.1477C11.0595 13.3644 10.9865 13.5788 10.9262 13.7972C10.904 13.8773 10.8778 13.9113 10.7872 13.9096C10.5628 13.905 10.3384 13.9142 10.1139 13.9217C10.0006 13.9251 9.9778 13.947 9.98919 14.0611C10.0125 14.2894 10.0444 14.517 10.0724 14.7447C10.0923 14.9066 10.0923 14.9135 10.2512 14.917C10.3833 14.9199 10.4699 14.9746 10.5144 15.0991C10.626 15.4126 10.7428 15.725 10.8459 16.042C10.8726 16.1244 10.9176 16.159 10.986 16.1924C11.2201 16.3071 11.4542 16.4229 11.6843 16.5457C11.788 16.601 11.7823 16.6074 11.7139 16.7013C11.3454 17.2079 10.9774 17.7145 10.6095 18.2216C10.1874 18.8026 9.75794 19.3772 9.2584 19.8947C8.93032 20.2348 8.56977 20.5212 8.11637 20.6716C7.78544 20.7817 7.45792 20.8998 7.1287 21.0145C6.92137 21.0866 6.7203 21.1696 6.5255 21.2647C5.11291 19.2775 4.25396 16.8627 4.17764 14.2519C4.49433 14.2041 4.73812 13.928 4.73812 13.5943C4.73812 13.2606 4.50914 13.0001 4.20555 12.9408C4.67888 6.37525 10.1094 1.18023 16.7166 1.18023C17.153 1.18023 17.5847 1.20329 18.0096 1.24709C17.9772 1.29896 17.943 1.35256 17.8986 1.40846L17.8997 1.40731ZM16.5367 5.96317L16.597 5.97816C16.6164 5.98334 16.867 6.02541 16.8858 6.03118C16.875 6.04732 16.6318 6.02772 16.621 6.04328C16.5697 6.05769 16.5184 6.07267 16.4666 6.0865C16.3817 6.12397 16.2969 6.16027 16.2114 6.1937C15.5046 6.47034 14.7567 6.61961 14.0527 6.89855C13.9621 6.95618 13.863 6.99941 13.7588 7.02477C13.7234 7.0409 13.6881 7.05704 13.6534 7.07433C13.544 7.1285 13.4307 7.15098 13.3185 7.14868C13.3082 7.15098 13.298 7.15329 13.2883 7.15617C13.8356 6.09515 15.5131 5.71074 16.5361 5.96317H16.5367ZM14.2862 4.09991C13.9672 4.21805 13.6477 4.33447 13.3287 4.45377C13.1578 4.51774 12.9875 4.58287 12.8189 4.6526C12.7067 4.69871 12.5996 4.76095 12.4863 4.80303C12.406 4.83242 12.3183 4.85374 12.2334 4.85317C12.1263 4.85201 12.0186 4.82493 11.8962 4.80648C11.9469 4.65606 12.0363 4.56212 12.1263 4.47394C12.3405 4.26416 12.5956 4.13103 12.8622 4.02268C13.1453 3.90799 13.4358 3.82154 13.74 3.79733C14.0601 3.7714 14.3807 3.74662 14.7014 3.73336C14.8102 3.72875 14.9207 3.76045 15.0307 3.77543C15.0318 3.791 15.0329 3.80656 15.0341 3.82212C14.7846 3.91491 14.5351 4.00769 14.2856 4.10048L14.2862 4.09991ZM22.1773 2.12541C22.1859 2.09659 22.1899 2.06605 22.2001 2.01879C22.2531 2.13578 22.236 2.25624 22.2594 2.37496C22.2149 2.35306 22.1705 2.33058 22.1255 2.30868C22.1437 2.24817 22.1597 2.18593 22.1773 2.12483V2.12541Z" fill="black"/>
<path d="M13.0635 24.3134C12.9724 24.4056 13.182 24.6177 13.182 24.6177L13.3916 24.8298C13.3916 24.8298 13.6012 25.0419 13.6923 24.9497C13.7835 24.8575 13.5738 24.6454 13.5738 24.6454L13.3642 24.4333C13.3642 24.4333 13.1546 24.2212 13.0635 24.3134Z" fill="black"/>
<path d="M15.9346 27.2769C15.8434 27.3691 16.0531 27.5812 16.0531 27.5812L16.2627 27.7933C16.2627 27.7933 16.4723 28.0054 16.5634 27.9132C16.6545 27.821 16.4449 27.6089 16.4449 27.6089L16.2353 27.3968C16.2353 27.3968 16.0257 27.1847 15.9346 27.2769Z" fill="black"/>
<path d="M16.5634 24.3134C16.4723 24.2212 16.2627 24.4333 16.2627 24.4333L16.0531 24.6454C16.0531 24.6454 15.8434 24.8575 15.9346 24.9497C16.0257 25.0419 16.2353 24.8298 16.2353 24.8298L16.4449 24.6177C16.4449 24.6177 16.6545 24.4056 16.5634 24.3134Z" fill="black"/>
<path d="M13.6923 27.2769C13.6012 27.1847 13.3916 27.3968 13.3916 27.3968L13.182 27.6089C13.182 27.6089 12.9724 27.821 13.0635 27.9132C13.1546 28.0054 13.3642 27.7933 13.3642 27.7933L13.5738 27.5812C13.5738 27.5812 13.7835 27.3691 13.6923 27.2769Z" fill="black"/>
<path d="M11.8975 26.1116C11.8975 26.2418 12.3776 26.2418 12.3776 26.2418H12.8578C12.8578 26.2418 13.3385 26.2418 13.3385 26.1116C13.3385 25.9813 12.8578 25.9813 12.8578 25.9813H12.3776C12.3776 25.9813 11.8975 25.9813 11.8975 26.1116Z" fill="black"/>
<path d="M14.8123 23.1625C14.9411 23.1625 14.941 23.6483 14.941 23.6483V24.1348C14.941 24.1348 14.9411 24.6206 14.8123 24.6206C14.6836 24.6206 14.6836 24.1348 14.6836 24.1348V23.6483C14.6836 23.6483 14.6836 23.1625 14.8123 23.1625Z" fill="black"/>
<path d="M17.7294 26.115C17.7294 25.9848 17.2492 25.9848 17.2492 25.9848H16.7685C16.7685 25.9848 16.2883 25.9848 16.2883 26.115C16.2883 26.2453 16.7685 26.2453 16.7685 26.2453H17.2492C17.2492 26.2453 17.7294 26.2453 17.7294 26.115Z" fill="black"/>
<path d="M14.8155 29.0635C14.6868 29.0635 14.6868 28.5777 14.6868 28.5777V28.0912C14.6868 28.0912 14.6868 27.6054 14.8155 27.6054C14.9442 27.6054 14.9442 28.0912 14.9442 28.0912V28.5777C14.9442 28.5777 14.9442 29.0635 14.8155 29.0635Z" fill="black"/>
<path d="M14.8018 26.6435L14.1451 27.0769C14.1291 27.0873 14.1081 27.0729 14.1138 27.0544L14.3279 26.3029C14.3302 26.2948 14.3279 26.2862 14.3205 26.281L13.7002 25.7975C13.6848 25.7854 13.6928 25.7617 13.7122 25.7606L14.5011 25.7295C14.5096 25.7295 14.517 25.7237 14.5199 25.7162L14.7938 24.9843C14.8007 24.9664 14.8263 24.9664 14.8331 24.9843L15.1071 25.7162C15.11 25.7243 15.1174 25.7295 15.1259 25.7295L15.9148 25.7606C15.9342 25.7612 15.9421 25.7854 15.9268 25.7975L15.3065 26.281C15.2996 26.2862 15.2968 26.2948 15.2991 26.3029L15.5132 27.0544C15.5184 27.0729 15.4979 27.0879 15.4819 27.0769L14.8252 26.6435C14.8183 26.6389 14.8092 26.6389 14.8018 26.6435Z" fill="black"/>
</svg>
