<svg width="1280" height="728" viewBox="0 0 102 58" fill="#000000" xmlns="http://www.w3.org/2000/svg">
<path d="M7.16792 50.8932C6.87619 50.6284 6.57004 50.4174 6.24947 50.258C6.65989 49.9101 6.97935 49.4914 7.20785 48.9998C7.43525 48.5082 7.5495 48.0065 7.5495 47.4925C7.5495 46.9785 7.45632 46.5273 7.26997 46.0929C7.08362 45.6586 6.81407 45.2792 6.46355 44.9537C6.11192 44.6294 5.7015 44.3791 5.23118 44.2051C4.76087 44.0312 4.25616 43.9447 3.71929 43.9447C3.25562 43.9447 2.80084 44.0278 2.3527 44.1939C1.90457 44.36 1.50524 44.5946 1.15361 44.8965C0.787562 45.2063 0.51136 45.5576 0.325008 45.9504C0.108706 46.3735 0 46.8157 0 47.277C0 47.5565 0.0621176 47.8157 0.185243 48.0537C0.308369 48.2916 0.474755 48.4791 0.683293 48.6149C0.89183 48.7507 1.11257 48.8191 1.3444 48.8191C1.48638 48.8191 1.63613 48.7888 1.79253 48.7282L1.88238 48.6485C1.53075 48.2781 1.35549 47.8359 1.35549 47.3219C1.35549 46.8079 1.57956 46.3241 2.02769 45.9392C2.25953 45.7427 2.52242 45.5901 2.81747 45.4801C3.11253 45.3701 3.41314 45.3162 3.71929 45.3162C4.19737 45.3162 4.62443 45.4094 5.00157 45.5935C5.37871 45.7787 5.67155 46.0357 5.8812 46.3645C6.08974 46.6934 6.19512 47.0694 6.19512 47.4925C6.19512 47.7495 6.14298 48.0122 6.03871 48.2804C5.93444 48.5486 5.78802 48.7888 5.60167 48.9998C5.4375 49.1816 5.23229 49.3399 4.98604 49.4757C4.73979 49.6115 4.4525 49.6912 4.12305 49.7136V46.9246C4.12305 46.8258 4.14524 46.7203 4.19072 46.607C4.23619 46.4936 4.29166 46.396 4.35821 46.3118V46.2321H2.52131V46.3118C2.68547 46.516 2.76756 46.7237 2.76756 46.9347V51.2423C2.37156 51.3556 2.01106 51.5633 1.68605 51.8663C1.36104 52.1682 1.1037 52.5319 0.912906 52.955C0.722116 53.3781 0.626722 53.8237 0.626722 54.2929C0.626722 55.3277 0.92178 56.1863 1.5119 56.8664C1.79586 57.184 2.16746 57.4523 2.62668 57.6712C3.08591 57.89 3.65162 58 4.32382 58C4.93613 58 5.49629 57.8945 6.00433 57.6824C6.52012 57.4702 6.96049 57.1762 7.32654 56.798C7.69259 56.4197 7.97212 55.9775 8.16735 55.4713C8.36147 54.9652 8.45908 54.4242 8.45908 53.8507C8.45908 53.2771 8.34926 52.7362 8.12852 52.23C7.90779 51.7238 7.58832 51.2782 7.17014 50.8921L7.16792 50.8932ZM2.76534 56.1762C2.68326 56.1156 2.6045 56.0404 2.53018 55.9495C2.16413 55.5409 1.98111 54.9898 1.98111 54.294C1.98111 54.0594 2.02215 53.8327 2.10423 53.6138C2.18632 53.395 2.30168 53.1986 2.45142 53.0246C2.52574 52.9337 2.63112 52.8394 2.76534 52.7406V56.175V56.1762ZM6.91058 54.9517C6.78301 55.2918 6.6011 55.5869 6.3615 55.8361C6.10749 56.0931 5.8091 56.2895 5.46523 56.4253C5.12137 56.5611 4.7409 56.6296 4.32272 56.6296H4.12083V51.12C4.53125 51.12 4.91949 51.1884 5.28554 51.3242C5.65159 51.46 5.97659 51.6564 6.26056 51.9135C6.529 52.1626 6.73643 52.4556 6.88285 52.7923C7.02816 53.129 7.10137 53.4814 7.10137 53.8518C7.10137 54.2446 7.03814 54.6116 6.91058 54.9517Z" fill="#000000"/>
<path d="M11.2008 46.8573C11.2685 46.9931 11.3184 47.1053 11.3517 47.1917C11.385 47.2793 11.4016 47.3713 11.4016 47.4689V54.0213C11.4016 54.1874 11.3339 54.3916 11.1997 54.6329V54.7126H12.9135V54.6329C12.8458 54.4971 12.7959 54.3849 12.7626 54.2985C12.7294 54.2121 12.7127 54.1189 12.7127 54.0213V47.4689C12.7127 47.3028 12.7804 47.0986 12.9146 46.8573V46.7776H11.2008V46.8573Z" fill="#000000"/>
<path d="M18.8192 46.699H17.6312V46.7787C17.6756 46.8168 17.7166 46.8729 17.7543 46.9493C17.792 47.0245 17.8098 47.1041 17.8098 47.1872C17.8098 47.2321 17.8053 47.2669 17.7987 47.2893L16.0738 54.2491C16.0439 54.3703 15.9729 54.5061 15.8608 54.6576V54.7137H17.497V54.634C17.4227 54.4982 17.3849 54.3815 17.3849 54.2827C17.3849 54.2524 17.3927 54.1997 17.4071 54.1245L17.721 52.946H18.8192L19.0987 54.0684C19.1131 54.1436 19.1209 54.1974 19.1209 54.2266C19.1209 54.3557 19.0765 54.4915 18.9867 54.6352V54.7148H20.7348V54.6464C20.6151 54.5027 20.5296 54.3175 20.4775 54.0908L18.8192 46.7001V46.699ZM17.934 51.8685L18.2923 50.1682L18.6284 51.8685H17.934Z" fill="#000000"/>
<path d="M23.681 46.8573C23.7487 46.9931 23.7986 47.1053 23.8319 47.1917C23.8652 47.2793 23.8818 47.3713 23.8818 47.4689V54.0213C23.8818 54.1874 23.8141 54.3916 23.6799 54.6329V54.7126H25.3937V54.6329C25.326 54.4971 25.2761 54.3849 25.2429 54.2985C25.2096 54.2121 25.1929 54.1189 25.1929 54.0213V47.4689C25.1929 47.3028 25.2606 47.0986 25.3948 46.8573V46.7776H23.681V46.8573Z" fill="#000000"/>
<path d="M31.6407 53.4152C31.5475 53.4646 31.4488 53.4893 31.3434 53.4893H30.1555V47.4701C30.1555 47.2961 30.2231 47.0918 30.3573 46.8584V46.7787H28.6436V46.8584C28.77 47.0929 28.8343 47.2972 28.8343 47.4701V54.0224C28.8343 54.1963 28.7711 54.4006 28.6436 54.6341V54.7137H32.1732V53.0818H32.1288C31.897 53.2558 31.735 53.3669 31.6418 53.4163L31.6407 53.4152Z" fill="#000000"/>
<path d="M38.2508 53.4152C38.1577 53.4646 38.0589 53.4893 37.9536 53.4893H36.7656V47.4701C36.7656 47.2961 36.8332 47.0918 36.9674 46.8584V46.7787H35.2537V46.8584C35.3801 47.0929 35.4445 47.2972 35.4445 47.4701V54.0224C35.4445 54.1963 35.3812 54.4006 35.2537 54.6341V54.7137H38.7822V53.0818H38.7378C38.506 53.2558 38.344 53.3669 38.2508 53.4163V53.4152Z" fill="#000000"/>
<path d="M44.721 46.8573C44.863 47.0694 44.9339 47.2725 44.9339 47.4689V52.377C44.9339 52.7474 44.863 53.037 44.721 53.2446C44.579 53.4522 44.3771 53.5566 44.1164 53.5566C43.8846 53.5566 43.7016 53.4533 43.5674 53.2446C43.4331 53.037 43.3655 52.7474 43.3655 52.377V47.4689C43.3655 47.295 43.4331 47.0907 43.5674 46.8573V46.7776H41.8081V46.8573C41.8602 46.9325 41.9102 47.0335 41.959 47.1581C42.0078 47.2826 42.0322 47.387 42.0322 47.4701V52.3781C42.0322 53.1267 42.2174 53.716 42.5868 54.147C42.9562 54.5779 43.4664 54.7934 44.1164 54.7934C44.7665 54.7934 45.2811 54.5779 45.6627 54.147C46.0443 53.716 46.234 53.1267 46.234 52.3781V47.3455C46.234 47.2018 46.3083 47.0391 46.458 46.8584V46.7787H44.721V46.8584V46.8573Z" fill="#000000"/>
<path d="M51.3753 49.5442C51.0392 49.1816 50.8717 48.8034 50.8717 48.4106C50.8717 48.2445 50.9205 48.0986 51.017 47.974C51.1135 47.8494 51.2411 47.7865 51.3975 47.7865C51.606 47.7865 51.7968 47.8528 51.9687 47.9852C52.1407 48.1176 52.2782 48.2669 52.3836 48.433H52.4734L52.4291 46.8685C52.3769 46.8303 52.2571 46.7933 52.0708 46.7551C51.8844 46.7169 51.6604 46.699 51.3986 46.699C50.8229 46.699 50.3603 46.8539 50.0098 47.1636C49.6582 47.4734 49.4829 47.8853 49.4829 48.3993C49.4829 48.8146 49.565 49.2063 49.7292 49.5722C49.8933 49.9392 50.1473 50.3074 50.4912 50.6777C50.865 51.0784 51.1423 51.4432 51.3254 51.772C51.5084 52.1009 51.5993 52.4084 51.5993 52.6957C51.5993 53.0134 51.5206 53.2648 51.3642 53.45C51.2078 53.6351 51.0092 53.7272 50.7707 53.7272C50.4868 53.7272 50.2572 53.652 50.0819 53.5005C49.9066 53.3489 49.7591 53.1379 49.6393 52.8652H49.5495L49.5827 54.395C49.6648 54.4937 49.8124 54.5835 50.0253 54.6666C50.2383 54.7496 50.5123 54.7912 50.8484 54.7912C51.4685 54.7912 51.9665 54.5948 52.3436 54.2019C52.7208 53.8091 52.9094 53.2917 52.9094 52.6486C52.9094 52.1345 52.7818 51.6261 52.5289 51.1244C52.2749 50.6216 51.89 50.0952 51.3753 49.543V49.5442Z" fill="#000000"/>
<path d="M55.4873 48.3545H55.5317L55.6659 48.2636C55.9577 48.0896 56.1884 48.0032 56.3603 48.0032H56.9538V54.0224C56.9538 54.1211 56.9327 54.2165 56.8916 54.3119C56.8506 54.4062 56.7885 54.514 56.7064 54.6352V54.7149H58.5211V54.6352C58.439 54.514 58.3769 54.4062 58.3359 54.3119C58.2948 54.2177 58.2738 54.1211 58.2738 54.0224V48.0032H58.8672C59.0391 48.0032 59.271 48.0896 59.5616 48.2636L59.6958 48.3545H59.7402V46.7787H55.4829V48.3545H55.4873Z" fill="#000000"/>
<path d="M65.8279 51.267C66.1485 51.1009 66.4269 50.8136 66.6621 50.405C66.8972 49.9965 67.0148 49.5285 67.0148 48.9998C67.0148 48.3354 66.8296 47.7978 66.4602 47.3904C66.0908 46.983 65.6027 46.7787 64.9982 46.7787H62.8252V46.8584C62.9516 47.0929 63.016 47.2972 63.016 47.4701V54.0224C63.016 54.1963 62.9528 54.4006 62.8252 54.6341V54.7137H64.5168V54.6341C64.397 54.3995 64.3371 54.1963 64.3371 54.0224V51.4039H64.7176L65.7148 54.7137H67.1934V54.6341C67.0514 54.4522 66.9394 54.2603 66.8573 54.056L65.8268 51.267H65.8279ZM65.352 49.9516C65.169 50.1559 64.9583 50.258 64.7187 50.258H64.3382V48.0245H64.5623C65.2722 48.0245 65.626 48.3949 65.626 49.1356C65.626 49.4757 65.534 49.7473 65.352 49.9516Z" fill="#000000"/>
<path d="M72.5951 46.699H71.4071V46.7787C71.4514 46.8168 71.4925 46.8729 71.5302 46.9493C71.5679 47.0245 71.5857 47.1041 71.5857 47.1872C71.5857 47.2321 71.5823 47.2669 71.5746 47.2893L69.8497 54.2491C69.8197 54.3703 69.7488 54.5061 69.6367 54.6576V54.7137H71.2729V54.634C71.1985 54.4982 71.1608 54.3815 71.1608 54.2827C71.1608 54.2524 71.1686 54.1997 71.183 54.1245L71.4969 52.946H72.5951L72.8757 54.0684C72.8901 54.1436 72.8979 54.1974 72.8979 54.2266C72.8979 54.3557 72.8535 54.4915 72.7637 54.6352V54.7148H74.5118V54.6464C74.392 54.5027 74.3066 54.3175 74.2545 54.0908L72.5962 46.7001L72.5951 46.699ZM71.7099 51.8685L72.0682 50.1682L72.4043 51.8685H71.7099Z" fill="#000000"/>
<path d="M76.7295 48.3545H76.7739L76.9081 48.2636C77.1998 48.0896 77.4306 48.0032 77.6025 48.0032H78.1959V54.0224C78.1959 54.1211 78.1749 54.2165 78.1338 54.3119C78.0928 54.4062 78.0307 54.514 77.9486 54.6352V54.7149H79.7633V54.6352C79.6812 54.514 79.6191 54.4062 79.5781 54.3119C79.537 54.2177 79.5159 54.1211 79.5159 54.0224V48.0032H80.1094C80.2813 48.0032 80.5132 48.0896 80.8038 48.2636L80.938 48.3545H80.9824V46.7787H76.7251V48.3545H76.7295Z" fill="#000000"/>
<path d="M84.067 46.8573C84.1347 46.9931 84.1846 47.1053 84.2179 47.1917C84.2512 47.2793 84.2678 47.3713 84.2678 47.4689V54.0213C84.2678 54.1874 84.2001 54.3916 84.0659 54.6329V54.7126H85.7797V54.6329C85.712 54.4971 85.6621 54.3849 85.6288 54.2985C85.5956 54.2121 85.5789 54.1189 85.5789 54.0213V47.4689C85.5789 47.3028 85.6466 47.0986 85.7808 46.8573V46.7776H84.067V46.8573Z" fill="#000000"/>
<path d="M92.8498 47.2029C92.4538 46.8662 91.9979 46.6978 91.4832 46.6978C90.9685 46.6978 90.5126 46.864 90.1166 47.1962C89.7206 47.5284 89.4122 47.9975 89.1926 48.6014C88.9719 49.2063 88.8621 49.9055 88.8621 50.6991C88.8621 51.4926 88.9719 52.2221 89.1926 52.8416C89.4134 53.4612 89.7206 53.9415 90.1166 54.2816C90.5126 54.6217 90.9685 54.7912 91.4832 54.7912C91.9979 54.7912 92.4538 54.6228 92.8498 54.2872C93.2458 53.9505 93.5519 53.4769 93.7682 52.8641C93.9845 52.2524 94.0932 51.5487 94.0932 50.7552C94.0932 49.9617 93.9845 49.2456 93.7682 48.6294C93.5519 48.0133 93.2458 47.5374 92.8498 47.2007V47.2029ZM92.2896 52.8023C92.0877 53.3119 91.8193 53.5678 91.4832 53.5678C91.2669 53.5678 91.0728 53.4466 90.9008 53.2053C90.7289 52.964 90.5958 52.6239 90.5026 52.185C90.4095 51.7473 90.3629 51.2445 90.3629 50.6777C90.3629 50.1109 90.4095 49.6373 90.5026 49.2097C90.5958 48.7832 90.7289 48.4521 90.9008 48.2175C91.0728 47.9829 91.2669 47.8662 91.4832 47.8662C91.8193 47.8662 92.0877 48.1345 92.2896 48.671C92.4915 49.2074 92.5924 49.9145 92.5924 50.7911C92.5924 51.6228 92.4915 52.2928 92.2896 52.8035V52.8023Z" fill="#000000"/>
<path d="M100.099 46.7787V46.8584C100.233 47.0469 100.301 47.2512 100.301 47.4701V50.2243L98.6314 46.7787H97.186V46.8584C97.2537 46.9796 97.3014 47.0851 97.3313 47.176C97.3613 47.2669 97.3757 47.3646 97.3757 47.4712V54.0235C97.3757 54.1896 97.308 54.3905 97.1738 54.624V54.7149H98.8987V54.624C98.7645 54.4197 98.6968 54.2199 98.6968 54.0235V49.8854L101.184 54.7149H101.643V47.4712C101.643 47.2826 101.703 47.0784 101.823 46.8595V46.7798H100.098L100.099 46.7787Z" fill="#000000"/>
<path d="M70.8139 19.5823C70.8139 19.5823 70.8193 19.5823 70.8225 19.5823C71.3215 19.5823 71.7267 19.1731 71.7267 18.6673C71.7267 18.1615 71.3223 17.7523 70.8225 17.7523C70.8068 17.7523 70.7912 17.7539 70.7763 17.7547C70.4751 13.5527 68.7135 9.64268 65.7394 6.63341C64.394 5.27204 62.8654 4.16157 61.211 3.32575C61.344 3.04239 61.3612 2.75508 61.3862 2.46539C61.4261 2.50576 61.4801 2.558 61.5106 2.5952C61.5787 2.67989 61.6178 2.71155 61.6498 2.81049C61.66 2.84056 61.6694 2.86668 61.6819 2.89834C61.6944 2.86827 61.7054 2.80732 61.7022 2.77883C61.6936 2.70363 61.6944 2.65773 61.6717 2.58649C61.4863 2.01266 61.1867 1.50294 60.7667 1.07711C60.349 0.65287 59.8554 0.359225 59.253 0.287991C59.1881 0.280076 59.1255 0.252373 59.063 0.228628C57.8974 -0.206694 56.8429 -0.0278161 55.9246 0.829374C55.7134 1.02646 55.535 1.26707 55.3715 1.50848C55.3528 1.53618 55.3355 1.56309 55.3183 1.59C54.7074 1.5251 54.0902 1.49106 53.4683 1.49106C48.8327 1.49106 44.4748 3.31783 41.1972 6.6342C38.2231 9.64347 36.4615 13.5527 36.1603 17.7555C36.1447 17.7547 36.1298 17.7531 36.1142 17.7531C35.6151 17.7531 35.2099 18.1623 35.2099 18.6681C35.2099 19.1739 35.6143 19.5831 36.1142 19.5831C36.1173 19.5831 36.1196 19.5831 36.1228 19.5831C36.2253 23.1044 37.3486 26.4477 39.3488 29.2662C38.9913 29.4506 38.6502 29.6675 38.3318 29.9263C37.7772 30.3767 37.2977 30.903 36.8127 31.4246C35.9108 32.3942 35.0057 33.3606 33.9583 34.1759C33.8636 34.2495 33.7925 34.2843 33.6869 34.2052C33.6391 34.1695 33.5719 34.1585 33.5116 34.1426C33.0235 34.0199 32.537 34.0556 32.0504 34.1561C31.9378 34.1798 31.8267 34.2273 31.7219 34.126C31.6976 34.1023 31.6421 34.1038 31.6022 34.1078C31.4989 34.1189 31.3964 34.1529 31.294 34.1498C31.0022 34.141 30.8872 34.327 30.8074 34.5677C30.5954 35.2096 30.5532 35.8689 30.5962 36.5393C30.6056 36.6881 30.6439 36.8131 30.7519 36.9232C30.8825 37.0577 30.877 37.2184 30.8199 37.3933C30.719 37.7036 30.5946 38.013 30.5508 38.3336C30.4718 38.9122 30.5055 39.4947 30.6463 40.0654C30.7871 40.6345 31.0069 41.1719 31.3722 41.6318C31.5153 41.8122 31.7007 41.9642 31.8846 42.1051C32.0308 42.2175 32.0817 42.1953 32.2225 42.079C32.2585 42.0497 32.3109 42.0362 32.3586 42.0275C32.6426 41.9768 32.9101 41.794 32.9085 41.4014C32.907 41.0389 32.9124 40.6756 32.9383 40.3147C32.9688 39.8826 33.0243 39.4528 33.0712 39.0222C33.0759 38.9818 33.0884 38.9367 33.1127 38.9066C33.2027 38.7935 33.3004 38.6866 33.392 38.5742C33.586 38.3376 33.7729 38.0946 33.9724 37.8634C34.1351 37.6751 34.1531 37.4732 34.0271 37.2722C33.9341 37.1242 33.9693 37.0102 34.0616 36.8955C34.2556 36.6533 34.4402 36.4016 34.6522 36.1776C35.6276 35.1462 36.7478 34.2906 37.9282 33.5197C38.7144 33.006 39.5271 32.5351 40.3344 32.0547C40.6418 31.8718 40.9539 31.7001 41.2707 31.5394C43.2131 33.4825 45.5301 34.9033 48.0552 35.7383C48.0567 35.6924 48.0591 35.6465 48.063 35.6006C45.5316 34.7521 43.26 33.3242 41.399 31.4745C42.0624 31.1444 42.7476 30.8643 43.4603 30.645C43.867 30.52 44.2691 30.3894 44.6008 30.0973C44.9051 29.829 45.2273 29.5812 45.5348 29.3169C46.7488 28.2705 47.9597 27.2218 49.1714 26.1739C49.2074 26.1422 49.2465 26.1137 49.306 26.0662C49.3177 26.1374 49.3263 26.181 49.331 26.2237C49.3459 26.3749 49.349 26.5277 49.378 26.6757C49.3912 26.7461 49.4374 26.8466 49.4922 26.8656C49.6369 26.9179 49.6603 27.0168 49.6439 27.1419C49.6291 27.2535 49.6142 27.3682 49.5759 27.4727C49.4523 27.8083 49.3326 28.1383 49.349 28.5111C49.3826 29.3003 49.6439 30.0094 50.0397 30.6751C50.1461 30.854 50.2807 31.017 50.416 31.1761C50.4528 31.2196 50.5365 31.2307 50.6006 31.2418C50.6593 31.2521 50.7211 31.2386 50.7813 31.2402C50.847 31.2418 50.9158 31.2616 50.9784 31.2497C51.2843 31.1919 51.5424 30.8738 51.533 30.5595C51.5276 30.383 51.5002 30.2073 51.4853 30.0316C51.4658 29.8052 51.4634 29.5757 51.4274 29.3517C51.3891 29.115 51.5041 28.9156 51.5448 28.6987C51.6222 28.2824 51.9359 27.9484 51.968 27.5131C52.0994 27.403 52.1823 27.217 52.3833 27.2178C52.6204 27.2186 52.8582 27.2242 53.0936 27.2463C53.9862 27.3318 54.8623 27.5194 55.7321 27.7283C56.6176 27.9413 57.4953 28.1882 58.373 28.4344C59.167 28.6576 59.9539 28.9045 60.7463 29.1301C60.9529 29.1887 61.1734 29.2544 61.3823 29.2393C62.0723 29.191 62.5964 28.8372 62.9679 28.2539C63.2073 27.8779 63.23 27.4822 63.036 27.0754C62.7458 26.4675 62.3554 25.9253 61.9166 25.4235C61.5247 24.9763 61.1038 24.5552 60.6924 24.1263C60.622 24.0526 60.5985 23.998 60.6799 23.9181C60.7166 23.8817 60.7471 23.8287 60.7604 23.7772C60.8817 23.2928 60.9982 22.8068 61.1171 22.3216C61.1367 22.2409 61.1023 22.1974 61.0303 22.1649C60.4444 21.9045 59.8389 21.7059 59.203 21.633C58.8948 21.5982 58.6178 21.5468 58.4207 21.2808C58.3941 21.2444 58.3535 21.2183 58.3182 21.189C57.9271 20.8637 57.5587 20.4996 57.0299 20.4031C57.0103 20.3999 56.9806 20.373 56.9798 20.3572C56.9759 20.1957 56.85 20.0303 56.9916 19.872C57.0017 19.8601 57.0072 19.8419 57.0103 19.8253C57.0338 19.7065 57.1058 19.6915 57.2137 19.7073C57.3733 19.7311 57.5352 19.7366 57.6964 19.7493C57.7996 19.7572 57.8387 19.7184 57.8387 19.6036C57.8387 19.1359 57.8426 18.6681 57.8583 18.2011C57.8692 17.8631 57.9193 17.5291 58.0844 17.226C58.1696 17.0685 58.1939 17.059 58.3402 17.154C58.6225 17.3368 58.9175 17.4729 59.2648 17.4381C59.289 17.4357 59.314 17.446 59.3383 17.45C59.6551 17.4967 59.9289 17.6423 60.1956 17.8125C60.3709 17.9249 60.5547 18.0246 60.7416 18.1172C60.8746 18.1829 61.0287 18.2312 61.1555 18.122C61.2611 18.0302 61.3596 18.0294 61.477 18.0634C61.5568 18.0864 61.6404 18.0958 61.7195 18.1228C61.8258 18.1584 61.9291 18.1489 61.994 18.0626C62.1395 17.8695 62.3335 17.8616 62.5424 17.8821C62.5838 17.8861 62.6253 17.8821 62.6675 17.8821C63.0634 17.8893 63.5241 17.6328 63.5984 17.0843C63.6047 17.0408 63.6571 16.9957 63.6993 16.9664C63.7666 16.9205 63.8542 16.8991 63.9137 16.8453C64.0044 16.763 63.9786 16.6561 63.8652 16.63C63.7142 16.5952 63.6469 16.5097 63.6524 16.3554C63.654 16.3055 63.6493 16.2509 63.6289 16.2065C63.6078 16.1606 63.5726 16.1068 63.5304 16.0886C63.3551 16.0126 63.1737 15.9517 62.9969 15.8805C62.867 15.8282 62.7528 15.8496 62.648 15.9382C62.5017 16.0625 62.3546 16.1868 62.2091 16.3134C62.1513 16.3633 62.1035 16.3704 62.0316 16.3284C61.951 16.2809 61.8532 16.2651 61.7656 16.2271C61.7155 16.2058 61.6663 16.1749 61.6256 16.1385C61.5216 16.0427 61.4394 15.9105 61.3197 15.848C60.8723 15.6161 60.4201 15.3889 59.9563 15.1942C59.6661 15.0723 59.3938 14.9576 59.2233 14.6671C59.1709 14.5777 59.0528 14.527 58.9644 14.4589C58.9394 14.4391 58.8901 14.4201 58.8901 14.4019C58.894 14.288 58.8822 14.1613 58.9276 14.0632C58.9871 13.9318 59.0989 13.8257 59.1787 13.703C59.2374 13.612 59.2921 13.6097 59.3704 13.6746C59.512 13.7917 59.6567 13.9057 59.8022 14.0181C60.0071 14.1756 60.2348 14.2872 60.4859 14.3426C60.5344 14.3529 60.5883 14.3378 60.6392 14.3347C60.6235 14.2848 60.6141 14.231 60.5899 14.1851C60.5547 14.1186 60.5085 14.0576 60.4686 13.9935C60.2621 13.6563 60.0322 13.3437 59.6426 13.202C59.5644 13.1735 59.5706 13.1181 59.5988 13.0596C59.7138 12.8261 59.7146 12.5807 59.6778 12.3306C59.6739 12.3061 59.6809 12.2791 59.6856 12.2253C59.7271 12.2768 59.7513 12.3045 59.7717 12.3338C60.0376 12.7279 60.3975 12.9583 60.8738 13.0121C61.3878 13.0691 61.8344 13.2994 62.249 13.6009C62.2897 13.631 62.3343 13.6556 62.3765 13.6825C62.3883 13.6714 62.4 13.6595 62.411 13.6484C62.2232 13.3706 62.0363 13.0936 61.8446 12.8102C62.339 12.6108 62.8209 12.3955 63.3739 12.3987C63.1416 12.2174 62.9053 12.0631 62.6668 11.9127C62.4509 11.7773 62.2131 11.7243 61.9612 11.7504C61.6099 11.7876 61.2564 11.813 60.909 11.8739C60.3748 11.9681 60.0595 11.7694 59.7983 11.2565C59.785 11.2304 59.7873 11.1964 59.7787 11.1434C59.8264 11.175 59.853 11.194 59.8804 11.2106C59.9829 11.2739 60.0807 11.3483 60.1902 11.3966C60.3247 11.4552 60.3967 11.403 60.3818 11.2565C60.3662 11.103 60.3396 10.9471 60.2911 10.8014C60.2035 10.5379 60.1675 10.2806 60.2582 10.0099C60.2879 9.92049 60.2903 9.81918 60.2919 9.72341C60.2942 9.60785 60.2551 9.58015 60.1448 9.61497C60.0822 9.63476 60.0243 9.6688 59.9461 9.70441C59.9594 9.65217 59.968 9.6126 59.9782 9.57461C60.0494 9.29917 60.1127 9.02293 60.0048 8.74354C59.9414 8.57891 59.864 8.41982 59.803 8.25439C59.7873 8.21165 59.7904 8.13567 59.8178 8.10876C59.8342 8.09293 59.8515 8.0771 59.8679 8.06127C59.8491 7.9932 59.835 7.92434 59.8272 7.8539C59.7584 7.7233 59.7169 7.58083 59.6973 7.43361C59.6817 7.39799 59.6676 7.36079 59.6504 7.32597C59.652 7.32913 59.6528 7.33072 59.6543 7.33309C59.6489 7.32201 59.6426 7.31093 59.6363 7.29985C59.6199 7.29827 59.5581 7.30776 59.5417 7.30618C59.4752 7.10514 59.5644 6.89539 59.5863 6.6342C59.5988 6.50598 59.6598 6.25191 59.7005 6.1316C59.7552 5.97093 59.846 5.99784 60.0955 6.04929C60.2504 6.08095 60.4076 6.09915 60.5649 6.11894C60.7323 6.14031 60.7776 6.11419 60.8496 5.95985C60.8746 5.90682 60.8879 5.84825 60.9114 5.79442C60.9693 5.66066 61.0209 5.52294 61.0921 5.3963C61.15 5.29499 61.2008 5.20476 61.1742 5.0797C61.1641 5.03142 61.1977 4.96652 61.2274 4.91903C61.3017 4.79872 61.3557 4.67921 61.3409 4.52882C61.326 4.38319 61.3276 4.23518 61.3346 4.08875C61.3455 3.8798 61.3479 3.87426 61.1562 3.86318C61.1195 3.8608 61.0827 3.84893 61.0475 3.83626C60.8778 3.77532 60.6783 3.693 60.8308 3.34475C60.8379 3.32971 60.8426 3.31309 60.8488 3.29726C66.3042 5.92581 70.1873 11.3721 70.648 17.765C70.2311 17.8465 69.9166 18.2169 69.9166 18.6626C69.9166 19.1082 70.2506 19.5 70.6863 19.5657C70.465 27.1696 65.4078 33.564 58.5255 35.7082C58.5365 35.7517 58.5467 35.7953 58.556 35.8388C61.2392 35.0101 63.6978 33.5261 65.7379 31.4618C68.8919 28.2705 70.6817 24.0677 70.8123 19.5759L70.8139 19.5823ZM55.9613 25.4037C55.9222 25.4069 55.8831 25.4148 55.8448 25.4124C55.2174 25.3824 54.5893 25.3657 53.9635 25.3151C53.4793 25.2763 52.9982 25.194 52.5163 25.1322C52.4491 25.1235 52.4084 25.1156 52.399 25.0238C52.3935 24.966 52.3231 24.8972 52.2644 24.8639C51.9242 24.6724 51.5573 24.5521 51.174 24.4816C51.1106 24.4698 51.048 24.4579 50.9698 24.4436C50.998 24.4017 51.0113 24.3756 51.0301 24.355C51.2147 24.1555 51.4032 23.9585 51.5854 23.7566C51.6879 23.6434 51.8115 23.5841 51.9601 23.5865C52.2214 23.5896 52.4827 23.5944 52.7432 23.6078C52.8011 23.611 52.8629 23.6434 52.9129 23.6767C53.8579 24.302 54.8451 24.8513 55.8722 25.3254C55.9042 25.3404 55.934 25.3602 55.9645 25.3784C55.9629 25.3863 55.9613 25.3942 55.9606 25.4021L55.9613 25.4037ZM55.0915 1.93272C54.9859 2.02532 54.8975 2.12743 54.7872 2.21449C53.6991 3.07168 52.5335 3.74762 51.2209 4.10062C50.5435 4.28346 49.8575 4.40298 49.1605 4.47025C48.7091 4.51378 48.2617 4.58898 47.8127 4.65388C47.7509 4.66259 47.6922 4.69266 47.6328 4.71245C47.6343 4.72907 47.6351 4.74648 47.6367 4.76311C47.6758 4.7726 47.7149 4.79081 47.7524 4.78923C47.8479 4.78448 47.9433 4.76944 48.038 4.75994C48.1209 4.75123 48.2046 4.7449 48.2875 4.73699C48.1381 4.83513 47.984 4.90003 47.8354 4.97681C47.2604 5.27441 46.8036 5.71053 46.5329 6.36272C46.4586 6.5416 46.4602 6.54397 46.2842 6.48777C46.2075 6.46324 46.1277 6.44345 46.0573 6.40308C45.7092 6.20284 45.3642 5.99705 45.0185 5.79205C44.9637 5.7596 44.9113 5.7224 44.8581 5.68757C44.8511 5.70182 44.8433 5.71527 44.8362 5.72952C45.2774 6.32473 45.8391 6.74343 46.4688 7.08456C46.4289 7.11543 46.4109 7.13364 46.3898 7.1463C45.983 7.3885 45.6419 7.71301 45.3768 8.13409C45.1296 8.52746 44.9966 8.95882 45.074 9.4543C45.0991 9.6126 45.1523 9.75903 45.2406 9.89516C45.2579 9.88171 45.2743 9.86825 45.2915 9.85559C45.2915 9.82709 45.2931 9.79939 45.2915 9.7709C45.2758 9.29917 45.4065 8.905 45.7585 8.62956C46.1676 8.3098 46.6307 8.10955 47.1219 8.04069C47.8799 7.93463 48.6465 7.88793 49.41 7.8167C49.4241 7.81511 49.4382 7.82382 49.4726 7.83253C49.3944 7.91167 49.3294 7.97341 49.2684 8.03911C49.0447 8.28209 48.1968 9.36961 48.0067 10.0004C47.5405 10.0986 47.0781 10.1999 46.6487 10.4294C46.389 10.5679 46.1074 10.6677 45.8297 10.7682C45.5285 10.8766 45.218 10.9597 44.916 11.065C44.715 11.1354 44.5249 11.247 44.4584 11.4623C44.4107 11.6151 44.316 11.6776 44.187 11.7251C44.1048 11.7552 44.0235 11.7876 43.9452 11.8264C43.9108 11.8438 43.8678 11.8771 43.8608 11.9103C43.8365 12.0306 43.7606 12.0306 43.6722 12.0077C43.612 11.9918 43.5526 11.972 43.4955 11.9467C43.1708 11.805 42.8532 11.6452 42.5216 11.5225C42.0256 11.3389 41.5211 11.1813 41.0196 11.0128C40.8632 10.9605 40.8632 10.9613 40.8155 11.1307C40.7732 11.1228 40.7302 11.1077 40.6872 11.1069C40.634 11.1062 40.5816 11.1172 40.5284 11.1228C40.5487 11.1813 40.5519 11.2629 40.5925 11.2937C40.7286 11.3966 40.8757 11.4853 41.0228 11.5716C41.1206 11.6285 41.2269 11.6721 41.3294 11.7219C41.2848 11.7599 41.2426 11.7726 41.2003 11.7742C41.0634 11.7813 40.925 11.7805 40.7881 11.7916C40.7404 11.7955 40.6942 11.8248 40.6473 11.843C40.677 11.8945 40.7013 11.9507 40.738 11.9966C40.7568 12.0203 40.7944 12.0346 40.8256 12.0417C41.0275 12.0884 41.2293 12.1335 41.4319 12.1747C41.5039 12.1889 41.5782 12.1889 41.6517 12.196L41.6533 12.2348C41.6188 12.257 41.586 12.2823 41.55 12.2997C41.4491 12.3488 41.3443 12.3907 41.2449 12.443C41.2129 12.4596 41.1925 12.5 41.1667 12.5293C41.2003 12.5562 41.2324 12.6045 41.2668 12.606C41.4147 12.6124 41.5727 12.6377 41.7088 12.5957C42.0209 12.5 42.2986 12.5467 42.5669 12.7176C42.7922 12.8617 43.0128 13.0144 43.2467 13.1427C43.6738 13.377 44.1142 13.5598 44.6172 13.4015C44.6516 13.3904 44.7134 13.4094 44.74 13.4371C44.891 13.5954 45.0599 13.5962 45.243 13.5115C45.3189 13.4767 45.3947 13.4411 45.4683 13.4023C45.57 13.3485 45.667 13.312 45.7882 13.3508C45.8531 13.3714 45.9392 13.3556 46.0072 13.3318C46.4171 13.1917 46.8239 13.0429 47.2322 12.9005C47.9723 12.6424 48.7037 12.3662 49.403 12.0069C49.5313 11.9412 49.6736 11.885 49.8144 11.8668C50.1571 11.8209 50.502 11.7868 50.847 11.7718C51.4267 11.7465 51.9578 11.5826 52.4475 11.2676C52.5304 11.2138 52.6368 11.1806 52.7354 11.1695C53.0741 11.1315 53.4143 11.1077 53.7538 11.0777C53.8391 11.0697 53.9244 11.0579 54.0276 11.0452C54.0167 11.1038 54.012 11.1473 54.001 11.19C53.8477 11.7583 53.6967 12.3274 53.5356 12.8933C53.5153 12.963 53.4472 13.0358 53.3823 13.0722C53.2376 13.1545 53.1531 13.2685 53.146 13.4331C53.1398 13.5788 53.0733 13.6587 52.9317 13.6785C52.654 13.7181 52.4811 13.8962 52.3528 14.1312C52.3388 14.1574 52.3231 14.1819 52.3122 14.2096C52.2433 14.3829 52.1135 14.4953 51.9609 14.5895C51.6692 14.7692 51.3727 14.9409 51.0919 15.1364C50.725 15.3905 50.362 15.6533 50.0147 15.9335C49.78 16.1227 49.7573 16.2904 49.906 16.5564C50.0327 16.7828 50.1813 16.9973 50.3354 17.2062C50.477 17.3985 50.4856 17.3914 50.2885 17.5276C50.2611 17.5466 50.2322 17.5648 50.2095 17.5893C49.9904 17.8188 49.773 18.0507 49.5532 18.2795C49.4554 18.3808 49.3537 18.4781 49.2528 18.5755C49.1918 18.6349 49.1362 18.6174 49.0635 18.5779C48.7459 18.4045 48.4228 18.2407 48.1021 18.0737C47.8932 17.9653 47.7071 17.9668 47.5624 18.1845C47.5444 18.2122 47.5193 18.2415 47.4912 18.2534C47.4528 18.27 47.402 18.2874 47.3676 18.2747C46.924 18.1141 46.4719 17.9953 46.0041 17.9296C45.875 17.9114 45.8211 17.9375 45.7859 18.0563C45.6975 18.3539 45.5974 18.6483 45.5144 18.9483C45.4839 19.0583 45.4479 19.105 45.3236 19.1026C45.0154 19.0963 44.7072 19.109 44.3989 19.1193C44.2433 19.124 44.212 19.1541 44.2276 19.3108C44.2597 19.6242 44.3035 19.9369 44.3418 20.2495C44.3692 20.4719 44.3692 20.4814 44.5875 20.4862C44.769 20.4901 44.8879 20.5653 44.9489 20.7363C45.1022 21.1669 45.2625 21.5958 45.4041 22.0312C45.4409 22.1443 45.5027 22.1918 45.5966 22.2377C45.9181 22.3953 46.2396 22.5543 46.5556 22.7229C46.698 22.7989 46.6901 22.8076 46.5963 22.9366C46.0902 23.6324 45.5848 24.3281 45.0795 25.0246C44.4999 25.8224 43.91 26.6115 43.224 27.3223C42.7734 27.7893 42.2783 28.1827 41.6556 28.3892C41.2011 28.5404 40.7513 28.7027 40.2992 28.8602C40.0145 28.9591 39.7383 29.0731 39.4708 29.2037C37.5308 26.4746 36.3512 23.1583 36.2464 19.5728C36.6813 19.5071 37.0161 19.128 37.0161 18.6697C37.0161 18.2114 36.7016 17.8537 36.2847 17.7721C36.9348 8.75541 44.3927 1.62087 53.4668 1.62087C54.066 1.62087 54.6589 1.65253 55.2425 1.71268C55.1979 1.78392 55.1509 1.85753 55.0899 1.9343L55.0915 1.93272ZM53.2196 8.18949L53.3025 8.21007C53.3291 8.21719 53.6733 8.27497 53.6991 8.28289C53.6842 8.30505 53.3502 8.27814 53.3353 8.29951C53.2649 8.31929 53.1945 8.33987 53.1233 8.35887C53.0068 8.41032 52.8902 8.46018 52.7729 8.50609C51.8021 8.88601 50.775 9.091 49.8082 9.47409C49.6838 9.55324 49.5477 9.6126 49.4045 9.64742C49.356 9.66959 49.3075 9.69175 49.2598 9.71549C49.1096 9.78989 48.954 9.82076 48.7999 9.8176C48.7858 9.82076 48.7717 9.82393 48.7584 9.82789C49.5101 8.37074 51.8139 7.84281 53.2188 8.18949H53.2196ZM50.1289 5.63058C49.6908 5.79284 49.252 5.95272 48.8139 6.11656C48.5793 6.20442 48.3454 6.29386 48.1138 6.38963C47.9597 6.45295 47.8127 6.53843 47.657 6.59621C47.5467 6.63658 47.4262 6.66586 47.3097 6.66507C47.1626 6.66349 47.0148 6.62629 46.8466 6.60096C46.9162 6.39438 47.039 6.26536 47.1626 6.14427C47.4568 5.85616 47.8072 5.67333 48.1733 5.52452C48.5621 5.36702 48.961 5.24829 49.3787 5.21505C49.8184 5.17943 50.2588 5.1454 50.6992 5.12719C50.8486 5.12086 51.0003 5.16439 51.1513 5.18497C51.1529 5.20634 51.1544 5.22771 51.156 5.24908C50.8134 5.37651 50.4707 5.50395 50.1281 5.63138L50.1289 5.63058ZM60.9662 2.91892C60.9779 2.87935 60.9834 2.8374 60.9974 2.77249C61.0702 2.93317 61.0467 3.09859 61.0788 3.26164C61.0178 3.23156 60.9568 3.20069 60.895 3.17062C60.92 3.08751 60.9419 3.00203 60.9662 2.91813V2.91892Z" fill="#000000"/>
<path d="M48.4495 33.3907C48.3243 33.5173 48.6122 33.8086 48.6122 33.8086L48.9001 34.0999C48.9001 34.0999 49.1879 34.3911 49.3131 34.2645C49.4383 34.1379 49.1504 33.8466 49.1504 33.8466L48.8625 33.5553C48.8625 33.5553 48.5747 33.264 48.4495 33.3907Z" fill="#000000"/>
<path d="M52.3926 37.4606C52.2675 37.5872 52.5553 37.8785 52.5553 37.8785L52.8432 38.1697C52.8432 38.1697 53.1311 38.461 53.2562 38.3344C53.3814 38.2077 53.0935 37.9165 53.0935 37.9165L52.8056 37.6252C52.8056 37.6252 52.5178 37.3339 52.3926 37.4606Z" fill="#000000"/>
<path d="M53.2562 33.3907C53.1311 33.264 52.8432 33.5553 52.8432 33.5553L52.5553 33.8466C52.5553 33.8466 52.2675 34.1379 52.3926 34.2645C52.5178 34.3911 52.8056 34.0999 52.8056 34.0999L53.0935 33.8086C53.0935 33.8086 53.3814 33.5173 53.2562 33.3907Z" fill="#000000"/>
<path d="M49.3131 37.4606C49.1879 37.3339 48.9001 37.6252 48.9001 37.6252L48.6122 37.9165C48.6122 37.9165 48.3243 38.2077 48.4495 38.3344C48.5747 38.461 48.8625 38.1697 48.8625 38.1697L49.1504 37.8785C49.1504 37.8785 49.4383 37.5872 49.3131 37.4606Z" fill="#000000"/>
<path d="M46.8481 35.8602C46.8481 36.039 47.5076 36.039 47.5076 36.039H48.167C48.167 36.039 48.8272 36.039 48.8272 35.8602C48.8272 35.6813 48.167 35.6813 48.167 35.6813H47.5076C47.5076 35.6813 46.8481 35.6813 46.8481 35.8602Z" fill="#000000"/>
<path d="M50.8511 31.8101C51.0279 31.8101 51.0279 32.4773 51.0279 32.4773V33.1453C51.0279 33.1453 51.0279 33.8126 50.8511 33.8126C50.6743 33.8126 50.6743 33.1453 50.6743 33.1453V32.4773C50.6743 32.4773 50.6743 31.8101 50.8511 31.8101Z" fill="#000000"/>
<path d="M54.8575 35.8649C54.8575 35.6861 54.1981 35.6861 54.1981 35.6861H53.5379C53.5379 35.6861 52.8784 35.6861 52.8784 35.8649C52.8784 36.0438 53.5379 36.0438 53.5379 36.0438H54.1981C54.1981 36.0438 54.8575 36.0438 54.8575 35.8649Z" fill="#000000"/>
<path d="M50.8555 39.9142C50.6787 39.9142 50.6787 39.247 50.6787 39.247V38.5789C50.6787 38.5789 50.6787 37.9117 50.8555 37.9117C51.0323 37.9117 51.0323 38.5789 51.0323 38.5789V39.247C51.0323 39.247 51.0323 39.9142 50.8555 39.9142Z" fill="#000000"/>
<path d="M50.837 36.5907L49.935 37.1859C49.9131 37.2002 49.8842 37.1804 49.892 37.1551L50.1861 36.123C50.1893 36.1119 50.1861 36.1 50.176 36.0929L49.3241 35.4288C49.303 35.4122 49.3139 35.3797 49.3405 35.3782L50.4239 35.3354C50.4357 35.3354 50.4458 35.3275 50.4498 35.3172L50.826 34.312C50.8354 34.2875 50.8706 34.2875 50.88 34.312L51.2562 35.3172C51.2602 35.3283 51.2703 35.3354 51.2821 35.3354L52.3655 35.3782C52.3921 35.3789 52.403 35.4122 52.3819 35.4288L51.53 36.0929C51.5206 36.1 51.5167 36.1119 51.5199 36.123L51.814 37.1551C51.821 37.1804 51.7929 37.201 51.771 37.1859L50.869 36.5907C50.8596 36.5844 50.8471 36.5844 50.837 36.5907Z" fill="#000000"/>
</svg>
